<?xml version="1.0" encoding="utf-8"?>
<!-- Generator: Adobe Illustrator 22.0.1, SVG Export Plug-In . SVG Version: 6.00 Build 0)  -->
<svg version="1.2" baseProfile="tiny" id="Layer_1" xmlns="http://www.w3.org/2000/svg" xmlns:xlink="http://www.w3.org/1999/xlink"
	 x="0px" y="0px" viewBox="0 0 128 200" xml:space="preserve">
<rect fill="#EEEEEE" width="128" height="200"/>
<g>
	<path d="M30.6,95.3h-1.2l-8.1-12v12h-1.2V81.2h1.2l8.1,12v-12h1.2V95.3z"/>
	<path d="M44.5,89c0,1.3-0.2,2.4-0.7,3.4c-0.4,1-1.1,1.7-1.9,2.3c-0.8,0.5-1.8,0.8-2.9,0.8c-1.6,0-3-0.6-4-1.8
		c-1-1.2-1.5-2.8-1.5-4.8v-1.4c0-1.3,0.2-2.4,0.7-3.4c0.5-1,1.1-1.7,1.9-2.3C37,81.3,38,81,39.1,81s2,0.3,2.9,0.8
		c0.8,0.5,1.5,1.3,1.9,2.2c0.5,1,0.7,2.1,0.7,3.3V89z M43.4,87.5c0-1.7-0.4-3-1.1-4c-0.8-1-1.8-1.4-3.1-1.4c-1.3,0-2.3,0.5-3.1,1.4
		c-0.8,1-1.2,2.3-1.2,4V89c0,1.7,0.4,3,1.2,4c0.8,1,1.8,1.5,3.1,1.5c1.3,0,2.4-0.5,3.1-1.4c0.8-1,1.1-2.3,1.1-4V87.5z"/>
	<path d="M53.8,95.3h-1.2V81.2h1.2V95.3z"/>
	<path d="M59.2,81.2l5.2,12.4l5.2-12.4h1.6v14.1h-1.2v-6.1l0.1-6.3l-5.2,12.4h-0.9l-5.2-12.3l0.1,6.2v6.2h-1.2V81.2H59.2z"/>
	<path d="M82.5,91.3h-6.4l-1.4,3.9h-1.2l5.3-14.1h1.1l5.3,14.1h-1.2L82.5,91.3z M76.4,90.3h5.6l-2.8-7.7L76.4,90.3z"/>
	<path d="M97.3,93.6c-0.4,0.6-1.1,1-1.9,1.4s-1.9,0.5-2.9,0.5c-1.1,0-2.1-0.3-2.9-0.8c-0.9-0.5-1.5-1.3-2-2.2
		c-0.5-1-0.7-2.1-0.7-3.3v-1.8c0-1.9,0.5-3.5,1.5-4.6c1-1.1,2.3-1.7,4-1.7c1.4,0,2.6,0.4,3.5,1.1c0.9,0.7,1.4,1.8,1.6,3h-1.2
		c-0.2-1-0.6-1.8-1.3-2.3S93.3,82,92.2,82c-1.3,0-2.4,0.5-3.1,1.4c-0.8,0.9-1.1,2.3-1.1,4V89c0,1.1,0.2,2,0.5,2.8
		c0.4,0.8,0.9,1.5,1.6,1.9c0.7,0.5,1.5,0.7,2.3,0.7c1,0,1.9-0.2,2.6-0.5c0.5-0.2,0.8-0.5,1.1-0.7v-3.6h-3.8v-1h5V93.6z"/>
	<path d="M108.4,88.5h-6.6v5.7h7.6v1h-8.7V81.2h8.7v1h-7.5v5.3h6.6V88.5z"/>
	<path d="M24.9,115h-6.4l-1.4,3.9h-1.2l5.3-14.1h1.1l5.3,14.1h-1.2L24.9,115z M18.9,114h5.6l-2.8-7.7L18.9,114z"/>
	<path d="M33.1,117.2l0.1,0.3l0.1-0.3l4.4-12.3H39L33.8,119h-1.1l-5.2-14.1h1.3L33.1,117.2z"/>
	<path d="M47.9,115h-6.4l-1.4,3.9h-1.2l5.3-14.1h1.1l5.3,14.1h-1.2L47.9,115z M41.9,114h5.6l-2.8-7.7L41.9,114z"/>
	<path d="M54.1,119h-1.2v-14.1h1.2V119z"/>
	<path d="M59.1,118h6.9v1h-8.1v-14.1h1.2V118z"/>
	<path d="M76.1,115h-6.4l-1.4,3.9H67l5.3-14.1h1.1l5.3,14.1h-1.2L76.1,115z M70.1,114h5.6l-2.8-7.7L70.1,114z"/>
	<path d="M80.9,119v-14.1H85c1.5,0,2.6,0.3,3.4,0.9c0.8,0.6,1.2,1.5,1.2,2.7c0,0.7-0.2,1.4-0.6,1.9c-0.4,0.5-0.9,0.9-1.6,1.2
		c0.8,0.2,1.5,0.6,2,1.2c0.5,0.6,0.7,1.3,0.7,2.2c0,1.2-0.4,2.2-1.2,2.9c-0.8,0.7-1.9,1-3.3,1H80.9z M82.1,111.2h3.2
		c1,0,1.8-0.3,2.3-0.7c0.5-0.4,0.8-1.1,0.8-2c0-0.9-0.3-1.6-0.8-2c-0.6-0.4-1.4-0.6-2.6-0.6h-3V111.2z M82.1,112.2v5.7h3.6
		c1,0,1.8-0.3,2.4-0.8c0.6-0.5,0.9-1.2,0.9-2.2c0-0.9-0.3-1.6-0.9-2.1c-0.6-0.5-1.4-0.8-2.4-0.8H82.1z"/>
	<path d="M94.2,118h6.9v1H93v-14.1h1.2V118z"/>
	<path d="M111.1,112.2h-6.6v5.7h7.6v1h-8.7v-14.1h8.7v1h-7.5v5.3h6.6V112.2z"/>
</g>
</svg>
